<?xml version="1.0" encoding="UTF-8"?>
<svg version="1.1" viewBox="0 0 1774 887" width="1774" height="887" xmlns="http://www.w3.org/2000/svg">
<path transform="translate(546,185)" d="m0 0h50l2 7 15 88 18 113 3 19v-37l-1-59v-131h43v413h-43l-5-25-15-81-16-89-8-46-1 241h-42z" fill="#F7F3EA"/>
<path transform="translate(1422,185)" d="m0 0h61l1 5 9 122 9 119 8 98 5 63v6h-45l-4-50-2-29v-6h-33l-1 21-5 61-1 3h-43l6-64 10-98 20-201 4-45z" fill="#F7F3EA"/>
<path transform="translate(1269,181)" d="m0 0h15l15 3 12 6 10 9 7 11 4 10 3 17v93h-44l-1-87-3-8-6-4h-8l-5 3-3 4-1 3v301l3 6 3 3 3 1h8l5-3 3-4 1-4 1-97h44v103l-3 16-5 12-7 10-9 8-10 5-11 3-9 1h-9l-15-2-13-5-11-8-8-11-5-12-3-14v-316l3-14 5-12 8-11 10-8 11-5z" fill="#F7F3EA"/>
<path transform="translate(315,181)" d="m0 0h14l12 2 13 5 10 8 7 9 6 12 3 13 1 10v51l-1 39h-43l-1-85-3-9-4-4-2-1h-8l-6 3-3 6v302l4 8 5 2h8l6-4 3-9 1-95h43l1 1v97l-2 16-4 12-6 11-8 9-14 8-11 3-9 1h-11l-16-3-12-5-10-8-6-8-6-13-3-15v-317l3-14 5-12 7-9 9-8 10-5 11-3z" fill="#F7F3EA"/>
<path transform="translate(1466,624)" d="m0 0 5 2 41 26 2 1v2l-21 13-24 15h-3v-20h-61l-19 4-16 6-13 7-12 8-3 1v2l5 2 13 9 19 9 13 4 11 2 63 1v-21l5 2 20 12 15 10 8 5-4 4-24 15-18 11h-2v-22h-63l-16-3-18-6-14-7-18-12-7-5-5 1-14 10-14 8-13 6-20 6-15 2h-51v-16l51-1 18-3 17-6 17-9 13-9-11-8-21-11-16-5-10-2-10-1-982-1-4-4v-7l4-4 2-1h981l16 2 21 6 21 10 15 10 7 5 5-2 15-10 14-8 11-5 15-5 18-3h61z" fill="#EDC332"/>
<path transform="translate(1062,185)" d="m0 0h99v50h-53v132h38v48h-38v133h55v50h-101z" fill="#F7F3EA"/>
<path transform="translate(740,185)" d="m0 0h99v50h-54l1 131 38 1v48h-39v133h56v50h-101z" fill="#F7F3EA"/>
<path transform="translate(887,185)" d="m0 0h120v50h-37v363h-46v-363h-37l-1-1v-48z" fill="#F7F3EA"/>
<path transform="translate(437,185)" d="m0 0h46v413h-46z" fill="#F7F3EA"/>
</svg>
