<?xml version="1.0" encoding="UTF-8"?>
<svg version="1.1" viewBox="0 0 1774 887" width="1774" height="887" xmlns="http://www.w3.org/2000/svg">
<path transform="translate(546,185)" d="m0 0h50l2 7 15 88 18 113 3 19v-37l-1-59v-131h43v413h-43l-5-25-15-81-16-89-8-46-1 241h-42z" fill="#F7F3EA"/>
<path transform="translate(1422,185)" d="m0 0h61l1 5 9 122 9 119 8 98 5 63v6h-45l-4-50-2-29v-6h-33l-1 21-5 61-1 3h-43l6-64 10-98 20-201 4-45z" fill="#F7F3EA"/>
<path transform="translate(1269,181)" d="m0 0h15l15 3 12 6 10 9 7 11 4 10 3 17v93h-44l-1-87-3-8-6-4h-8l-5 3-3 4-1 3v301l3 6 3 3 3 1h8l5-3 3-4 1-4 1-97h44v103l-3 16-5 12-7 10-9 8-10 5-11 3-9 1h-9l-15-2-13-5-11-8-8-11-5-12-3-14v-316l3-14 5-12 8-11 10-8 11-5z" fill="#F7F3EA"/>
<path transform="translate(315,181)" d="m0 0h14l12 2 13 5 10 8 7 9 6 12 3 13 1 10v51l-1 39h-43l-1-85-3-9-4-4-2-1h-8l-6 3-3 6v302l4 8 5 2h8l6-4 3-9 1-95h43l1 1v97l-2 16-4 12-6 11-8 9-14 8-11 3-9 1h-11l-16-3-12-5-10-8-6-8-6-13-3-15v-317l3-14 5-12 7-9 9-8 10-5 11-3z" fill="#F7F3EA"/>
<path transform="translate(1466,624)" d="m0 0 5 2 41 26 2 1v2l-21 13-24 15h-3v-20h-61l-19 4-16 6-13 7-12 8-3 1v2l5 2 13 9 19 9 13 4 11 2 63 1v-21l5 2 20 12 15 10 8 5-4 4-24 15-18 11h-2v-22h-63l-16-3-18-6-14-7-18-12-7-5-5 1-14 10-14 8-13 6-20 6-15 2h-51v-16l51-1 18-3 17-6 17-9 13-9-11-8-21-11-16-5-10-2-10-1-982-1-4-4v-7l4-4 2-1h981l16 2 21 6 21 10 15 10 7 5 5-2 15-10 14-8 11-5 15-5 18-3h61z" fill="#EDC332"/>
<path transform="translate(1062,185)" d="m0 0h99v50h-53v132h38v48h-38v133h55v50h-101z" fill="#F7F3EA"/>
<path transform="translate(740,185)" d="m0 0h99v50h-54l1 131 38 1v48h-39v133h56v50h-101z" fill="#F7F3EA"/>
<path transform="translate(887,185)" d="m0 0h120v50h-37v363h-46v-363h-37l-1-1v-48z" fill="#F7F3EA"/>
<path transform="translate(437,185)" d="m0 0h46v413h-46z" fill="#F7F3EA"/>
<path transform="translate(1449,286)" d="m0 0h1l5 83 5 77v18h-24l-1-2 10-126z" fill="#08070C"/>
<path transform="translate(570,703)" d="m0 0h7l8 19v3h2l1-5 7-17h7v31l-5-1-1-19-8 19h-4l-8-19-1 19-5 1z" fill="#F7F3EA"/>
<path transform="translate(379,703)" d="m0 0h17l5 4 1 8-3 5-2 1 2 5 3 6v2h-5l-6-11-7-1v11l-5 1z" fill="#F7F3EA"/>
<path transform="translate(811,703)" d="m0 0h17l5 4 1 8-5 6 2 5 3 6v2h-5l-6-11-7-1v11l-5 1z" fill="#F7F3EA"/>
<path transform="translate(981,703)" d="m0 0h17l5 4 1 2v7l-5 6 5 9v3l-5-1-6-10-7-1v12h-4l-1-7z" fill="#F7F3EA"/>
<path transform="translate(1018,703)" d="m0 0h5l8 11 6 10 1-21h5v31h-5l-14-21-1 20-5 1z" fill="#F6F2E9"/>
<path transform="translate(496,703)" d="m0 0h5l14 21 1-21h5v30l-5 1-8-11-7-11-1 22h-4z" fill="#F7F3EA"/>
<path transform="translate(626,703)" d="m0 0h5l5 11 6 16v4l-5-1-2-6h-13l-3 7h-4l1-6 9-24z" fill="#F7F3EA"/>
<path transform="translate(309,702)" d="m0 0 8 1 7 6 2 6v7l-4 8-6 4h-10l-6-4-3-5-1-10 4-8 5-4zm1 4-6 3-3 6v7l3 5 4 3h6l5-3 2-3v-11l-5-6z" fill="#F7F3EA"/>
<path transform="translate(741,702)" d="m0 0 8 1 5 3 4 8v8l-4 8-6 4h-10l-6-4-3-6v-12l4-6 4-3zm2 4-7 3-2 3-1 8 3 7 4 3h6l6-4 1-2v-12l-5-5z" fill="#F7F3EA"/>
<path transform="translate(912,702)" d="m0 0 8 1 6 5 2 5v10l-3 6-4 4-3 1h-9l-6-4-3-4-1-4v-7l3-7 4-4zm-3 5-5 6v10l3 5 4 2h6l6-5 1-9-3-7-3-2z" fill="#F7F3EA"/>
<path transform="translate(535,703)" d="m0 0h21v4h-16v9h14v4h-14l1 9 15 1v4h-20l-1-1z" fill="#F7F3EA"/>
<path transform="translate(1058,703)" d="m0 0h20v4h-15v9h14v4h-14v10h16l-1 4h-20z" fill="#F7F3EA"/>
<path transform="translate(942,703)" d="m0 0h4l1 21 2 4 8 1 4-3 1-23h5v23l-4 6-4 2h-10l-6-5-1-2z" fill="#F7F3EA"/>
<path transform="translate(339,703)" d="m0 0h5l1 22 4 4h6l3-2 1-3 1-21h4v24l-5 6-2 1h-10l-5-3-2-3-1-12z" fill="#F7F3EA"/>
<path transform="translate(447,702)" d="m0 0 8 1 6 5 1 3-4 1-4-4h-9l-4 4-1 9 3 6 3 2h6l4-2 1-2h5l-2 5-6 4h-10l-6-4-3-6v-12l4-6 4-3z" fill="#F7F3EA"/>
<path transform="translate(772,703)" d="m0 0h4l1 22 4 4h6l3-2 1-3 1-21h4v24l-2 4-5 3h-10l-5-3-2-4z" fill="#F7F3EA"/>
<path transform="translate(693,703)" d="m0 0h5l7 12 2 1 2-5 5-8h5l-5 10-5 8-1 13-5-1-1-13-9-15z" fill="#F7F3EA"/>
<path transform="translate(260,703)" d="m0 0h6l8 13 8-13h5l-4 8-6 10-1 13-5-1v-11l-11-18z" fill="#F7F3EA"/>
<path transform="translate(1090,703)" d="m0 0h5l8 13 6-9 2-4h5l-2 5-7 12-1 13-5 1-1-13-9-15z" fill="#F7F3EA"/>
<path transform="translate(881,703)" d="m0 0h4v26l-4 4-2 1h-8l-4-4-1-4 4-1 3 4h5l2-3z" fill="#F7F3EA"/>
<path transform="translate(476,703)" d="m0 0 5 1v29l-5 1z" fill="#F7F3EA"/>
</svg>
