<?xml version="1.0" encoding="UTF-8"?>
<svg version="1.1" viewBox="0 0 1254 1254" width="1254" height="1254" xmlns="http://www.w3.org/2000/svg">
<path transform="translate(0)" d="m0 0h1254v1254h-1254z" fill="#0A0A0F"/>
<path transform="translate(625,185)" d="m0 0h49l30 3 24 4 30 7 25 8 20 7 27 12 23 12 18 11 20 14 16 13 8 7 12 11 11 11 18 22-5 5-38 28-13 10-38 28-4 3-4-2-16-15-11-9-18-13-14-9-18-10-20-9-27-9-26-6-22-3-12-1h-27l-21 2-23 4-23 6-23 8-29 14-18 11-17 13-13 11-19 19-9 11-10 13-12 19-9 16-9 19-7 18-8 27-6 29-2 15-1 15v36l3 25 6 28 8 26 8 20 10 20 11 18 10 14 9 11 12 14 8 8 8 7 13 11 15 11 18 11 23 12 23 9 24 7 25 5 16 2 15 1h17l23-2 24-4 25-7 20-7 29-14 18-11 17-12 16-13 14-14 5-4 4 1 17 11 32 21 17 11 29 19-2 5-14 17-11 12-20 20-11 9-14 11-17 12-13 8-21 12-27 13-26 10-25 8-24 6-27 5-29 3h-56l-29-3-29-5-25-6-26-8-28-11-25-12-14-8-17-10-20-14-14-11-14-12-12-11-20-20-9-11-11-13-13-18-11-17-9-15-10-18-10-22-11-29-8-26-7-30-5-30-2-24v-54l3-32 6-32 7-27 10-30 13-31 10-20 8-14 12-19 12-17 11-14 12-14 12-13 20-20 8-7 15-12 18-13 17-11 18-10 16-8 20-9 28-10 27-8 27-6 32-5z" fill="#F3C748"/>
<path transform="translate(475,481)" d="m0 0h72l19 2 20 5 15 6 15 9 11 9 13 12 11 11 7 8 25 25 7 8 19 19 7 8 19 19 7 8 24 24 14 9 11 5 15 4 6 1 42 1v-38l5 2 21 13 48 30 14 9 6 4-5 5-22 14-16 10-25 16-24 15h-2v-38h-39l-20-2-20-5-18-8-14-9-13-12-17-17-7-8-14-14-7-8-14-14-7-8-26-26-7-8-32-32-13-9-13-6-13-4-16-2-69-1z" fill="#F3C748"/>
<path transform="translate(854,444)" d="m0 0 5 2 20 12 15 10 24 15 17 11 11 7-5 5-24 15-46 30-11 7-6 3-1-37h-35l-15 2-15 5-13 7-12 11-24 24-7 8-5 4-17-17-7-8-3-3 2-4 15-16 29-29 14-10 16-8 15-5 16-3 10-1h37z" fill="#F3C748"/>
<path transform="translate(636,615)" d="m0 0 4 1 24 24 2 5-34 34-8 7-14 10-17 9-20 7-17 3-12 1h-69v-42l72-1 17-3 14-5 16-9 15-13 9-10z" fill="#F3C748"/>
<path transform="translate(289,529)" d="m0 0 13 1 35 7 4 2 1 6-3 34-1 15-3 2-20 1h-30l-3-3v-17l2-27 3-19z" fill="#0A0A0F"/>
<path transform="translate(322,423)" d="m0 0 6 1 29 15 12 7 1 4-12 31-6 17-2 1-11-1-38-11-3-3 1-7 10-28 10-23z" fill="#0A0A0F"/>
<path transform="translate(329,636)" d="m0 0h9l3 3 5 27 5 21-1 5-12 5-33 11-6-1-3-8-6-24-4-24v-8l5-3z" fill="#0A0A0F"/>
<path transform="translate(362,729)" d="m0 0 5 2 9 19 13 23-1 5-18 13-19 13-3 2-5-1-15-26-11-21-2-4 1-5 12-6z" fill="#0A0A0F"/>
<path transform="translate(382,335)" d="m0 0 5 1 33 33v6l-8 9-12 16-8 11-1 1-7-1-30-20-8-6v-5l8-11 13-17 12-14z" fill="#0A0A0F"/>
<path transform="translate(411,808)" d="m0 0 5 1 12 13 7 8 11 11v5l-12 14-11 14-6 8-6 1-10-9-9-9v-2l-4-2-7-8-9-10 1-5 17-14 14-11z" fill="#0A0A0F"/>
<path transform="translate(458,274)" d="m0 0 5 1 10 19 12 23-1 4-32 24-5-1-12-14-18-22v-5l9-8 20-14z" fill="#0A0A0F"/>
<path transform="translate(475,867)" d="m0 0 7 1 26 16 2 2-1 7-18 38-5 1-19-10-18-11-1-6 8-11 14-20z" fill="#0A0A0F"/>
<path transform="translate(546,902)" d="m0 0 9 2 24 7 3 3-1 8-8 36-3 3-9-1-28-8-4-2-1-6 15-39z" fill="#0A0A0F"/>
<path transform="translate(535,241)" d="m0 0 5 1 2 2 12 41-2 5-20 8-11 4-5-2-15-37-2-7 5-5z" fill="#0A0A0F"/>
</svg>
